<svg xmlns="http://www.w3.org/2000/svg" xmlns:xlink="http://www.w3.org/1999/xlink" version="1.1" x="0px" y="0px" viewBox="0 0 32 40" enable-background="new 0 0 32 32" xml:space="preserve"><g><g><path d="M10.19,28.45l-6.64-6.64C4.92,24.72,7.28,27.08,10.19,28.45z"/><path d="M2.25,16c0,1.62,0.3,3.16,0.81,4.61l8.33,8.33c1.45,0.51,2.99,0.81,4.61,0.81c0.46,0,0.92-0.02,1.37-0.07L2.32,14.63    C2.27,15.08,2.25,15.54,2.25,16z"/><path d="M2.41,14.02l15.57,15.57c1.42-0.21,2.76-0.63,4.01-1.23L3.64,10.01C3.04,11.26,2.62,12.6,2.41,14.02z"/><path d="M3.87,9.54l18.59,18.59c1.11-0.59,2.13-1.34,3.03-2.21L6.08,6.51C5.21,7.41,4.46,8.43,3.87,9.54z"/><path d="M6.42,6.15l19.43,19.42c0.9-0.92,1.67-1.96,2.28-3.11L9.54,3.87C8.39,4.48,7.35,5.25,6.42,6.15z"/><path d="M10.01,3.64l18.35,18.35c0.6-1.25,1.02-2.59,1.23-4.01L14.02,2.41C12.6,2.62,11.26,3.04,10.01,3.64z"/><path d="M28.94,11.39l-8.33-8.33C19.16,2.55,17.62,2.25,16,2.25c-0.46,0-0.92,0.02-1.37,0.07l15.05,15.05    c0.05-0.45,0.07-0.91,0.07-1.37C29.75,14.38,29.45,12.84,28.94,11.39z"/><path d="M21.81,3.55l6.64,6.64C27.08,7.28,24.72,4.92,21.81,3.55z"/></g></g><text x="0" y="47" fill="#000000" font-size="5px" font-weight="bold" font-family="'Helvetica Neue', Helvetica, Arial-Unicode, Arial, Sans-serif">Created by Firza Alamsyah</text><text x="0" y="52" fill="#000000" font-size="5px" font-weight="bold" font-family="'Helvetica Neue', Helvetica, Arial-Unicode, Arial, Sans-serif">from the Noun Project</text></svg>